<svg width="167" height="37" viewBox="0 0 167 37" fill="none" xmlns="http://www.w3.org/2000/svg">
<path d="M16.9616 1.97052C19.6843 1.97052 21.8716 2.23017 23.5235 2.74948C25.2061 3.23824 26.3686 4.10884 27.011 5.36129C27.6534 6.58319 27.837 8.30913 27.5617 10.5391C27.2557 12.7385 26.6286 14.3881 25.6803 15.4878C24.7625 16.5875 23.2329 17.229 21.0915 17.4123L21.0456 17.6872C23.4929 17.9011 25.1449 18.7717 26.0015 20.299C26.858 21.7959 27.1028 23.8273 26.7357 26.3933C26.4298 28.5011 25.8332 30.1353 24.9461 31.2962C24.0589 32.4264 22.7893 33.2206 21.1374 33.6789C19.4854 34.1065 17.3746 34.3204 14.8049 34.3204C12.5411 34.3204 10.5832 34.3051 8.93124 34.2745C7.27928 34.2745 5.76499 34.244 4.38836 34.1829C3.01172 34.1218 1.6045 34.0454 0.166687 33.9538L4.61779 2.33708C5.87206 2.2149 7.09573 2.13853 8.28881 2.10798C9.51248 2.04688 10.8126 2.01634 12.1893 2.01634C13.5965 1.98579 15.1873 1.97052 16.9616 1.97052ZM16.6404 8.06475C15.8144 8.06475 15.0343 8.06475 14.3001 8.06475C13.5659 8.06475 12.8776 8.06475 12.2352 8.06475L11.2715 14.8921H15.1261C16.5639 14.8921 17.5581 14.6477 18.1088 14.159C18.69 13.6702 19.103 12.6469 19.3477 11.089C19.5007 9.8976 19.3783 9.10336 18.9806 8.70625C18.6135 8.27858 17.8335 8.06475 16.6404 8.06475ZM14.9425 20.2532H10.4914L9.39012 28.2261C10.5832 28.2261 11.8528 28.2261 13.1988 28.2261C14.3307 28.2261 15.2332 28.1192 15.9062 27.9054C16.5792 27.6915 17.0687 27.2792 17.3746 26.6682C17.7111 26.0572 17.9711 25.1866 18.1547 24.0564C18.3688 22.4985 18.2617 21.4751 17.8335 20.9864C17.4052 20.4976 16.4415 20.2532 14.9425 20.2532Z" fill="white"/>
<path d="M43.8719 10.5391C46.8699 10.5391 49.1795 10.8598 50.8009 11.5013C52.4529 12.1123 53.5542 13.0287 54.1048 14.2506C54.6861 15.4725 54.839 16.9846 54.5637 18.7869C54.2578 20.8642 53.34 22.2999 51.8104 23.0941C50.3114 23.8578 48.0629 24.3466 45.0649 24.5604L38.7783 25.0645C38.8089 26.3475 39.1301 27.1722 39.742 27.5388C40.3538 27.8748 41.3174 28.0428 42.6329 28.0428C43.3059 28.0428 44.1778 28.0276 45.2485 27.997C46.3498 27.9359 47.4817 27.8748 48.6442 27.8137C49.8373 27.7221 50.8774 27.6304 51.7645 27.5388L52.3611 32.6708C50.8315 33.3428 49.1184 33.8163 47.2217 34.0913C45.3556 34.3662 43.5659 34.5036 41.8528 34.5036C38.5795 34.5036 36.0557 34.0454 34.2813 33.129C32.507 32.182 31.3292 30.8074 30.748 29.0051C30.1667 27.2028 30.0138 24.9728 30.2891 22.3152C30.6562 19.1077 31.3904 16.6639 32.4917 14.9838C33.593 13.2731 35.092 12.1123 36.9887 11.5013C38.8854 10.8598 41.1798 10.5391 43.8719 10.5391ZM43.826 16.0835C42.8776 16.0835 42.1128 16.2209 41.5316 16.4959C40.9809 16.7403 40.5221 17.1985 40.155 17.8705C39.8184 18.5426 39.5278 19.5201 39.2831 20.8031L43.1377 20.3907C44.2084 20.299 45.0191 20.1158 45.5697 19.8408C46.1204 19.5659 46.4569 18.9397 46.5792 17.9622C46.7016 17.1679 46.5639 16.6486 46.1662 16.4042C45.7686 16.1598 44.9885 16.0529 43.826 16.0835Z" fill="white"/>
<path d="M68.1981 10.5391C69.3606 10.5696 70.6301 10.6307 72.0068 10.7224C73.3834 10.7835 74.7141 10.8904 75.999 11.0431C77.2838 11.1959 78.3699 11.3639 79.257 11.5472L78.5687 16.45C77.0697 16.45 75.5707 16.45 74.0717 16.45C72.6033 16.4195 71.1655 16.4042 69.7583 16.4042C68.0757 16.4042 66.9438 16.45 66.3626 16.5417C65.7813 16.6028 65.4601 16.8472 65.3989 17.2748C65.3377 17.6719 65.4754 17.9774 65.8119 18.1913C66.179 18.4051 66.8214 18.6647 67.7392 18.9702L73.0622 20.6198C74.8977 21.1696 76.2437 22.0097 77.1003 23.14C77.9874 24.2702 78.324 25.767 78.1098 27.6304C77.8651 29.5855 77.2685 31.0518 76.3202 32.0293C75.3718 33.0068 74.087 33.6483 72.4656 33.9538C70.8443 34.2898 68.9323 34.4578 66.7297 34.4578C65.1389 34.4578 63.4563 34.3967 61.682 34.2745C59.9383 34.1523 57.9345 33.908 55.6707 33.5414L56.4049 28.5927C56.8638 28.6232 57.5215 28.6385 58.3781 28.6385C59.2347 28.6385 60.1524 28.6385 61.1314 28.6385C62.1409 28.6385 63.0892 28.6385 63.9764 28.6385C65.6284 28.6385 66.8826 28.608 67.7392 28.5469C68.5958 28.4858 69.1923 28.3789 69.5288 28.2261C69.8653 28.0428 70.0489 27.7985 70.0795 27.493C70.1407 27.0959 69.9877 26.8057 69.6206 26.6224C69.2841 26.4391 68.5805 26.1794 67.5098 25.8434L62.3703 24.148C60.3513 23.5065 58.9594 22.5596 58.1946 21.3071C57.4604 20.0241 57.2156 18.4662 57.4604 16.6333C57.6745 15.2892 58.1334 14.1743 58.837 13.2884C59.5712 12.372 60.6878 11.6846 62.1868 11.2264C63.6858 10.7682 65.6895 10.5391 68.1981 10.5391Z" fill="white"/>
<path d="M90.4576 11.1806L90.5493 15.442C92.0789 13.9146 93.7309 12.7232 95.5052 11.8679C97.3101 10.982 99.0539 10.5391 100.736 10.5391C102.633 10.5391 104.147 11.089 105.279 12.1887C106.442 13.2884 106.87 14.9074 106.564 17.0457L104.178 33.9538H95.8264L97.8455 19.7034C97.9678 18.8786 97.922 18.3134 97.7078 18.008C97.4937 17.6719 97.0348 17.5345 96.3312 17.5956C95.6276 17.6261 94.8475 17.84 93.9909 18.2371C93.1649 18.6037 92.1707 19.2299 91.0082 20.1158L89.0809 33.9538H80.7294L83.8956 11.1806H90.4576Z" fill="white"/>
<path d="M119.199 0.916626C121.004 0.916626 121.8 1.78723 121.586 3.52844L121.264 5.95697C121.05 7.48435 120.132 8.24803 118.511 8.24803H115.207C113.433 8.24803 112.653 7.37743 112.867 5.63622L113.188 3.20769C113.341 1.68031 114.244 0.916626 115.895 0.916626H119.199ZM120.392 11.1806L117.226 33.9538H108.921L112.087 11.1806H120.392Z" fill="white"/>
<path d="M134.94 1.87887L133.15 15.0296C132.966 16.0071 132.722 16.9541 132.416 17.8705C132.11 18.7564 131.727 19.6575 131.269 20.574C133.288 19.5659 135.077 18.2371 136.637 16.5875C138.198 14.9074 139.207 13.1051 139.666 11.1806H148.247C147.605 13.7466 146.58 15.9002 145.173 17.6414C143.796 19.3826 142.22 20.8489 140.446 22.0402C140.997 22.4679 141.456 22.9414 141.823 23.4607C142.19 23.9495 142.496 24.4688 142.741 25.0186L146.962 33.9538H138.381L134.389 25.1103C133.899 25.2936 133.41 25.4768 132.921 25.6601C132.431 25.8129 131.957 25.9656 131.498 26.1183C131.498 26.4238 131.483 26.6987 131.452 26.9431L130.443 33.9538H122.091L126.588 1.87887H134.94Z" fill="white"/>
<path d="M166.743 30.464C166.743 33.6273 164.175 36.1916 161.007 36.1916C157.839 36.1916 155.271 33.6273 155.271 30.464C155.271 27.3007 157.839 24.7363 161.007 24.7363C164.175 24.7363 166.743 27.3007 166.743 30.464Z" fill="white"/>
</svg>
